# 3ds Max Wavefront OBJ Exporter v0.99 - (c)2007 guruware
# File Created: 12.07.2025 00:23:04

mtllib phrenderformer_ph01_house_00.mtl

#
# object Box001
#

v  25.5362 2.0401 -12.0024
v  30.4511 2.0401 -15.4439
v  32.5733 2.0401 -12.4130
v  27.6584 2.0401 -8.9716
v  34.6956 2.0401 -9.3822
v  29.7806 2.0401 -5.9407
v  35.3660 2.0401 -18.8854
v  37.4882 2.0401 -15.8545
v  39.6105 2.0401 -12.8236
v  27.6584 6.0401 -8.9716
v  25.5362 6.0401 -12.0024
v  29.7806 6.0401 -5.9407
v  26.9773 6.0401 -8.4947
v  24.5610 6.0401 -11.9455
v  29.3937 6.0401 -5.0438
v  34.6956 6.0401 -9.3822
v  39.6105 6.0401 -12.8236
v  34.9896 6.0401 -8.9622
v  40.5856 6.0401 -12.8805
v  37.4882 6.0401 -15.8545
v  35.3660 6.0401 -18.8854
v  38.1693 6.0401 -16.3314
v  35.7530 6.0401 -19.7822
v  30.4511 6.0401 -15.4439
v  30.1570 6.0401 -15.8639
v  27.6378 6.6406 -13.3668
v  29.6214 6.6406 -10.5340
v  29.6214 11.6005 -10.5340
v  27.6378 11.6005 -13.3668
v  29.7980 6.6406 -10.2818
v  31.7816 6.6406 -7.4490
v  31.7816 11.6005 -7.4490
v  29.7980 11.6005 -10.2818
v  34.9896 11.9240 -8.9622
v  29.3937 11.9240 -5.0438
v  40.5856 11.9240 -12.8805
v  38.1693 11.9240 -16.3314
v  35.7530 11.9240 -19.7822
v  30.1570 11.9240 -15.8639
v  24.5610 11.9240 -11.9455
v  27.7459 11.9083 -13.2125
v  29.6214 11.9083 -10.5340
v  29.6214 15.5931 -10.5340
v  29.7980 11.9083 -10.2818
v  31.6735 11.9083 -7.6033
v  29.7980 15.5931 -10.2818
v  32.5733 16.6713 -12.4130
v  26.9773 16.6713 -8.4947
v  38.1693 16.6713 -16.3314
v  26.9773 6.4867 -8.4947
v  24.8172 6.4867 -11.5797
v  29.1375 6.4867 -5.4097
v  29.1375 11.7544 -5.4097
v  26.9773 15.9984 -8.4947
v  24.8172 11.7544 -11.5797
v  29.5611 6.4867 -10.3038
v  27.4009 6.4867 -13.3889
v  31.7212 6.4867 -7.2188
v  31.7212 11.7544 -7.2188
v  29.5611 15.9984 -10.3038
v  27.4009 11.7544 -13.3889
v  29.4728 6.6406 -10.4299
v  27.4892 6.6406 -13.2628
v  29.5611 11.7544 -10.3038
v  29.4728 11.6005 -10.4299
v  27.4892 11.6005 -13.2628
v  31.6329 6.6406 -7.3449
v  29.6494 6.6406 -10.1778
v  31.6329 11.6005 -7.3449
v  29.6494 11.6005 -10.1778
v  29.4728 11.9083 -10.4299
v  27.5973 11.9083 -13.1084
v  29.4728 15.5931 -10.4299
v  31.5248 11.9083 -7.4993
v  29.6494 11.9083 -10.1778
v  29.6494 15.5931 -10.1778
# 76 vertices

vn -0.8041 -0.5774 -0.1418
vn -0.4056 -0.7071 -0.5792
vn 0.0000 -1.0000 -0.0000
vn -0.5792 -0.7071 0.4056
vn 0.4056 -0.7071 0.5792
vn -0.1418 -0.5774 0.8041
vn 0.1418 -0.5774 -0.8041
vn 0.5792 -0.7071 -0.4056
vn 0.8041 -0.5774 0.1418
vn -0.4199 -0.9045 -0.0740
vn -0.0740 -0.9045 0.4199
vn 0.4199 -0.9045 0.0740
vn 0.0740 -0.9045 -0.4199
vn -0.1418 0.5774 0.8041
vn -0.8041 0.5774 -0.1418
vn 0.5362 0.3550 0.7658
vn -0.1062 0.2742 0.9558
vn 0.9345 0.2742 0.2271
vn 0.8192 0.0000 -0.5736
vn 0.1062 0.2742 -0.9558
vn -0.5362 0.3550 -0.7658
vn -0.9345 0.2742 -0.2271
vn -0.0119 0.3429 0.9393
vn -0.6175 -0.7835 0.0691
vn -0.8867 0.3429 -0.3101
vn -0.2762 -0.7835 0.5566
vn 0.0000 1.0000 -0.0000
vn -0.4680 0.8207 0.3277
vn 0.4680 0.8207 -0.3277
vn -0.5792 0.7071 0.4056
vn -0.5680 0.3015 0.7658
vn -0.9139 0.3015 0.2718
vn -0.9767 -0.2147 -0.0064
vn -0.7521 -0.3963 0.5266
vn -0.3281 -0.2147 0.9199
vn -0.9345 -0.2742 -0.2271
vn -0.4680 -0.8207 0.3277
vn -0.1062 -0.2742 0.9558
vn -0.8192 0.0000 0.5736
vn -0.9139 -0.3015 0.2718
vn -0.5680 -0.3015 0.7658
vn -0.6765 0.0945 0.7303
vn -0.8432 -0.1839 0.5051
vn -0.9177 0.0945 0.3859
vn -0.7631 -0.1839 0.6196
# 45 vertex normals

vt 1.0000 0.0000 0.0000
vt 1.0000 0.5000 0.0000
vt 0.5000 0.5000 0.0000
vt 0.5000 0.0000 0.0000
vt 0.0000 0.5000 0.0000
vt 0.0000 0.0000 0.0000
vt 1.0000 1.0000 0.0000
vt 0.5000 1.0000 0.0000
vt 0.0000 1.0000 0.0000
# 9 texture coords

o Box001
g Box001
usemtl wire_028149177
s 2
f 1/1/1 2/2/2 3/3/3 4/4/4 
f 4/4/4 3/3/3 5/5/5 6/6/6 
f 2/2/2 7/7/7 8/8/8 3/3/3 
f 3/3/3 8/8/8 9/9/9 5/5/5 
s 8
f 1/6/1 4/4/4 10/3/4 11/5/10 
f 4/4/4 6/1/6 12/2/11 10/3/4 
f 11/5/10 10/3/4 13/8/4 14/9/1 
f 10/3/4 12/2/11 15/7/6 13/8/4 
s 16
f 6/6/6 5/4/5 16/3/5 12/5/11 
f 5/4/5 9/1/9 17/2/12 16/3/5 
f 12/5/11 16/3/5 18/8/5 15/9/6 
f 16/3/5 17/2/12 19/7/9 18/8/5 
s 32
f 9/6/9 8/4/8 20/3/8 17/5/12 
f 8/4/8 7/1/7 21/2/13 20/3/8 
f 17/5/12 20/3/8 22/8/8 19/9/9 
f 20/3/8 21/2/13 23/7/7 22/8/8 
s 64
f 7/6/7 2/4/2 24/3/2 21/5/13 
f 2/4/2 1/1/1 11/2/10 24/3/2 
f 21/5/13 24/3/2 25/8/2 23/9/7 
f 24/3/2 11/2/10 14/7/1 25/8/2 
s off
f 26/6/14 27/4/15 28/4/1 29/6/6 
f 30/4/14 31/1/15 32/1/1 33/4/6 
f 15/1/6 18/2/5 34/2/16 35/1/17 
f 18/2/5 19/7/9 36/7/18 34/2/16 
f 19/7/9 22/8/8 37/8/19 36/7/18 
f 22/8/8 23/9/7 38/9/20 37/8/19 
f 23/9/7 25/5/2 39/5/21 38/9/20 
f 25/5/2 14/6/1 40/6/22 39/5/21 
f 41/6/23 42/4/15 43/6/24 
f 44/4/14 45/1/25 46/6/26 
f 35/1/17 34/2/16 47/2/27 48/6/28 
f 34/2/16 36/7/18 49/7/29 47/2/27 
f 36/7/18 37/8/19 49/7/29 
f 37/8/19 38/9/20 49/7/29 
f 38/9/20 39/5/21 47/2/27 49/7/29 
f 39/5/21 40/6/22 48/6/28 47/2/27 
f 14/6/1 13/4/4 50/4/30 51/6/31 
f 13/4/4 15/1/6 52/1/32 50/4/30 
f 15/1/6 35/1/17 53/1/33 52/1/32 
f 35/1/17 48/6/28 54/6/34 53/1/33 
f 48/6/28 40/6/22 55/6/35 54/6/34 
f 40/6/22 14/6/1 51/6/31 55/6/35 
f 51/6/31 50/4/30 56/4/30 57/6/14 
f 50/4/30 52/1/32 58/1/15 56/4/30 
f 52/1/32 53/1/33 59/1/36 58/1/15 
f 53/1/33 54/6/34 60/6/37 59/1/36 
f 54/6/34 55/6/35 61/6/38 60/6/37 
f 55/6/35 51/6/31 57/6/14 61/6/38 
f 57/6/14 56/4/30 62/4/32 63/6/31 
f 56/4/30 64/4/39 65/4/40 62/4/32 
f 64/4/39 61/6/38 66/6/41 65/4/40 
f 61/6/38 57/6/14 63/6/31 66/6/41 
f 56/4/30 58/1/15 67/1/32 68/4/31 
f 58/1/15 59/1/36 69/1/40 67/1/32 
f 59/1/36 64/4/39 70/4/41 69/1/40 
f 64/4/39 56/4/30 68/4/31 70/4/41 
f 61/6/38 64/4/39 71/4/32 72/6/42 
f 64/4/39 60/6/37 73/6/43 71/4/32 
f 60/6/37 61/6/38 72/6/42 73/6/43 
f 64/4/39 59/1/36 74/1/44 75/4/31 
f 59/1/36 60/6/37 76/6/45 74/1/44 
f 60/6/37 64/4/39 75/4/31 76/6/45 
f 63/6/31 62/4/32 27/4/15 26/6/14 
f 62/4/32 65/4/40 28/4/1 27/4/15 
f 65/4/40 66/6/41 29/6/6 28/4/1 
f 66/6/41 63/6/31 26/6/14 29/6/6 
f 68/4/31 67/1/32 31/1/15 30/4/14 
f 67/1/32 69/1/40 32/1/1 31/1/15 
f 69/1/40 70/4/41 33/4/6 32/1/1 
f 70/4/41 68/4/31 30/4/14 33/4/6 
f 72/6/42 71/4/32 42/4/15 41/6/23 
f 71/4/32 73/6/43 43/6/24 42/4/15 
f 73/6/43 72/6/42 41/6/23 43/6/24 
f 75/4/31 74/1/44 45/1/25 44/4/14 
f 74/1/44 76/6/45 46/6/26 45/1/25 
f 76/6/45 75/4/31 44/4/14 46/6/26 
# 72 polygons - 4 triangles

